<?xml version="1.0" standalone="no"?>
<!DOCTYPE svg PUBLIC "-//W3C//DTD SVG 20010904//EN"
 "http://www.w3.org/TR/2001/REC-SVG-20010904/DTD/svg10.dtd">
<svg version="1.0" xmlns="http://www.w3.org/2000/svg"
 width="700.000000pt" height="700.000000pt" viewBox="0 0 700.000000 700.000000"
 preserveAspectRatio="xMidYMid meet">
<metadata>
Created by potrace 1.11, written by Peter Selinger 2001-2013
</metadata>
<g transform="translate(0.000000,700.000000) scale(0.100000,-0.100000)"
fill="#000000" stroke="none">
<path d="M5344 6991 c-38 -16 -34 -10 -329 -616 -51 -104 -104 -200 -116 -212
-26 -24 -63 -33 -199 -48 -30 -3 -62 -8 -70 -10 -8 -2 -35 -7 -60 -10 -25 -3
-56 -8 -70 -10 -14 -2 -45 -7 -70 -10 -55 -8 -97 -14 -130 -20 -14 -2 -47 -7
-75 -10 -131 -15 -219 -34 -243 -52 -34 -25 -52 -77 -41 -117 6 -21 108 -129
324 -341 209 -206 316 -319 321 -337 3 -15 -2 -73 -11 -130 -9 -57 -18 -114
-21 -128 -2 -14 -6 -35 -8 -46 -2 -12 -7 -39 -10 -60 -4 -22 -8 -46 -11 -54
-2 -8 -6 -35 -9 -60 -3 -25 -8 -56 -11 -70 -7 -37 -46 -259 -52 -302 -11 -71
19 -122 81 -139 40 -11 65 -1 232 89 49 27 152 81 229 122 77 40 156 82 175
93 101 57 197 100 221 99 30 -1 50 -10 214 -97 61 -32 139 -73 175 -92 36 -19
144 -77 241 -129 96 -52 185 -94 198 -94 36 0 79 28 97 62 16 31 16 67 -1 168
-4 19 -22 123 -40 230 -90 525 -89 516 -76 548 7 16 151 166 321 332 284 277
330 329 324 368 -1 6 -2 19 -3 27 0 8 -13 28 -28 45 -28 30 -52 38 -178 54
-67 9 -325 46 -425 61 -94 14 -119 18 -236 34 -34 5 -71 15 -84 23 -14 8 -68
106 -149 273 -71 143 -158 321 -195 396 -37 75 -75 144 -84 152 -22 20 -90 30
-118 18z"/>
<path d="M2535 6961 c-181 -64 -489 -207 -567 -262 -14 -11 -29 -19 -33 -19
-3 0 -40 -22 -82 -50 -42 -27 -77 -50 -79 -50 -6 0 -218 -152 -236 -169 -9 -9
-31 -27 -49 -41 -19 -14 -72 -59 -119 -101 -468 -420 -806 -926 -1008 -1510
-46 -135 -124 -425 -137 -513 -3 -21 -7 -48 -10 -60 -2 -12 -6 -37 -9 -56 -12
-95 -18 -137 -22 -160 -8 -56 -17 -254 -17 -400 -1 -315 34 -593 114 -900 29
-112 81 -285 98 -325 5 -11 31 -74 57 -140 92 -228 238 -494 388 -705 535
-754 1345 -1275 2241 -1439 102 -19 130 -23 233 -36 255 -32 681 -27 912 10
19 3 50 7 67 10 18 2 56 8 85 14 29 6 64 12 78 15 142 24 468 126 648 202 104
45 337 158 357 174 6 4 33 20 60 36 61 34 229 144 310 203 347 255 684 615
901 965 47 75 51 90 33 130 -20 43 -58 51 -152 33 -266 -54 -408 -66 -727 -62
-151 1 -286 5 -300 8 -14 3 -52 8 -85 12 -456 50 -951 216 -1357 456 -271 160
-486 326 -709 548 -225 225 -352 382 -506 624 -321 507 -496 1049 -548 1697
-7 84 -7 378 0 455 2 28 7 84 10 125 3 41 8 82 10 90 2 8 6 42 10 75 3 33 8
67 10 75 2 8 6 27 9 42 44 256 127 532 236 787 33 78 60 148 60 156 0 41 -43
85 -83 85 -7 0 -48 -13 -92 -29z"/>
</g>
</svg>
